# xmcd
#
# Track frame offsets: 
#        150
#        15129
#        32801
#        55315
#        68097
#        86211
#        101898
#        118470
#        144214
#        158305
#
# Disc length: 2336 seconds
#
# Revision: 1
# Processed by: cddbd v1.5.2PL0 Copyright (c) Steve Scherf et al.
# Submitted via: ExactAudioCopy v0.99pb3
#
DISCID=7c091e0a
DTITLE=Various Artist - Why The Hell Not...
DYEAR=2006
DGENRE=Country
TTITLE0=Kevin Fowler - Get Your Biscuits In The Oven
TTITLE1=Lyle Lovett - Sold American
TTITLE2=Charlie Robinson - Wild Man From Borneo
TTITLE3=Dwight Yoakam - Rapid City, South Dakota
TTITLE4=Jason Boland and The Stragglers - The Gospel According To John
TTITLE5=Todd Snider - They Ain't Makin' Jews Like Jesus Anymore
TTITLE6=Bruce Robinson and Kelly Willis - Lady Yesterday
TTITLE7=Willie Nelson - Ride'em Jewboy
TTITLE8=Asleep At The Wheel and Reckless Kelly - Homo Erectus
TTITLE9=Delbert McClinton - Autograph
EXTD=The Songs of Kinky Friedman proformed by Various Artist\n
EXTT0=Kevin Fowler
EXTT1=Lyle Lovett
EXTT2=Charlie Robison
EXTT3=Dwight Yoakam
EXTT4=Jason Borland and The Stragglers
EXTT5=Todd Snider
EXTT6=Bruce Robison and Kelly Willis
EXTT7=Willie Nelson
EXTT8=Asleep At The Wheel and Reckless Kelly
EXTT9=Delbert McClinton
PLAYORDER=
